<svg width="2753" height="2253" viewBox="0 0 2753 2253" fill="none" xmlns="http://www.w3.org/2000/svg">
<path d="M2277.24 1028.92C2277.24 906.12 2126.53 789.74 1895.47 717.569C1948.79 477.25 1925.09 286.053 1820.66 224.839C1796.59 210.481 1768.46 203.679 1737.72 203.679V287.942C1754.75 287.942 1768.46 291.343 1779.93 297.766C1830.29 327.239 1852.14 439.464 1835.1 583.806C1831.04 619.325 1824.37 656.733 1816.23 694.897C1743.64 676.76 1664.4 662.779 1581.08 653.711C1531.1 583.806 1479.25 520.326 1427.04 464.781C1547.76 350.289 1661.07 287.564 1738.09 287.564V203.301C1636.26 203.301 1502.95 277.362 1368.17 405.834C1233.37 278.117 1100.07 204.813 998.24 204.813V289.075C1074.89 289.075 1188.57 351.423 1309.29 465.158C1257.44 520.704 1205.6 583.806 1156.35 653.711C1072.66 662.779 993.421 676.76 920.845 695.275C912.325 657.489 906.032 620.836 901.586 585.695C884.189 441.353 905.66 329.128 955.655 299.278C966.759 292.476 981.2 289.454 998.24 289.454V205.191C967.132 205.191 938.987 211.992 914.552 226.351C810.495 287.564 787.17 478.383 840.859 717.947C610.536 790.496 460.565 906.5 460.565 1028.92C460.565 1151.73 611.276 1268.11 842.341 1340.28C789.016 1580.6 812.714 1771.79 917.144 1833.01C941.215 1847.37 969.351 1854.17 1000.46 1854.17C1102.29 1854.17 1235.6 1780.11 1370.39 1651.64C1505.17 1779.36 1638.48 1852.66 1740.31 1852.66C1771.41 1852.66 1799.56 1845.86 1824 1831.5C1928.05 1770.28 1951.38 1579.46 1897.69 1339.91C2127.27 1267.73 2277.24 1151.35 2277.24 1028.92ZM1795.12 776.892C1781.42 825.64 1764.38 875.888 1745.12 926.144C1729.95 895.921 1714.02 865.69 1696.62 835.458C1679.59 805.232 1661.43 775.759 1643.29 747.042C1695.87 754.977 1746.61 764.801 1795.12 776.892ZM1625.52 1179.31C1596.63 1230.33 1567.02 1278.69 1536.28 1323.66C1481.1 1328.57 1425.19 1331.21 1368.9 1331.21C1312.99 1331.21 1257.07 1328.57 1202.27 1324.03C1171.54 1279.06 1141.54 1231.08 1112.66 1180.44C1084.51 1130.95 1058.97 1080.69 1035.63 1030.06C1058.59 979.426 1084.51 928.789 1112.29 879.293C1141.17 828.285 1170.79 779.916 1201.53 734.95C1256.71 730.038 1312.61 727.393 1368.9 727.393C1424.82 727.393 1480.74 730.038 1535.53 734.572C1566.27 779.538 1596.27 827.524 1625.15 878.161C1653.3 927.657 1678.84 977.914 1702.17 1028.55C1678.84 1079.18 1653.3 1129.82 1625.52 1179.31ZM1745.12 1130.2C1764.56 1179.44 1781.62 1229.63 1796.23 1280.58C1747.71 1292.67 1696.62 1302.87 1643.67 1310.81C1661.81 1281.72 1679.95 1251.87 1696.99 1221.25C1714.02 1191.03 1729.95 1160.42 1745.12 1130.2ZM1369.64 1533.37C1335.2 1497.09 1300.77 1456.66 1266.7 1412.45C1300.03 1413.97 1334.09 1415.1 1368.53 1415.1C1403.34 1415.1 1437.78 1414.35 1471.48 1412.45C1439.69 1454.6 1405.7 1494.97 1369.64 1533.37ZM1094.14 1310.81C1041.56 1302.87 990.83 1293.05 942.324 1280.96C956.02 1232.21 973.06 1181.96 992.312 1131.7C1007.5 1161.93 1023.42 1192.16 1040.82 1222.39C1058.22 1252.62 1076 1282.09 1094.14 1310.81ZM1367.79 524.483C1402.23 560.756 1436.67 601.188 1470.73 645.397C1437.41 643.886 1403.34 642.753 1368.9 642.753C1334.09 642.753 1299.66 643.508 1265.96 645.397C1297.75 603.249 1331.74 562.885 1367.79 524.483ZM1093.77 747.042C1075.63 776.137 1057.49 805.988 1040.45 836.59C1023.42 866.822 1007.5 897.054 992.312 927.277C972.872 878.034 955.819 827.846 941.215 776.892C989.72 765.179 1040.82 754.977 1093.77 747.042ZM758.653 1220.12C627.57 1163.06 542.771 1088.25 542.771 1028.92C542.771 969.599 627.57 894.409 758.653 837.731C790.498 823.747 825.308 811.278 861.228 799.564C882.334 873.624 910.106 950.707 944.543 1029.68C910.479 1108.28 883.071 1184.98 862.337 1258.67C825.681 1246.95 790.871 1234.11 758.653 1220.12ZM957.874 1760.08C907.514 1730.61 885.663 1618.39 902.703 1474.04C906.777 1438.53 913.435 1401.11 921.582 1362.95C994.167 1381.09 1073.41 1395.07 1156.72 1404.14C1206.71 1474.04 1258.55 1537.52 1310.77 1593.07C1190.05 1707.56 1076.74 1770.28 999.714 1770.28C983.055 1769.91 968.986 1766.51 957.874 1760.08ZM1836.22 1472.16C1853.62 1616.5 1832.15 1728.72 1782.15 1758.57C1771.05 1765.37 1756.61 1768.4 1739.57 1768.4C1662.92 1768.4 1549.24 1706.05 1428.52 1592.31C1480.36 1536.77 1532.21 1473.67 1581.46 1403.76C1665.14 1394.69 1744.39 1380.71 1816.96 1362.2C1825.48 1400.36 1832.15 1437.02 1836.22 1472.16ZM1978.78 1220.12C1946.94 1234.11 1912.13 1246.58 1876.21 1258.29C1855.1 1184.23 1827.33 1107.15 1792.89 1028.17C1826.96 949.574 1854.36 872.872 1875.1 799.186C1911.76 810.9 1946.56 823.747 1979.15 837.731C2110.24 894.781 2195.04 969.599 2195.04 1028.92C2194.66 1088.25 2109.87 1163.44 1978.78 1220.12Z" fill="#61DAFB"/>
<path d="M1373.16 1201.62C1466.63 1201.62 1542.39 1124.31 1542.39 1028.93C1542.39 933.564 1466.63 856.252 1373.16 856.252C1279.7 856.252 1203.94 933.564 1203.94 1028.93C1203.94 1124.31 1279.7 1201.62 1373.16 1201.62ZM1069.66 2098.69H1013.79V2196.86H982.271V1954.18H1061C1087.79 1954.18 1108.37 1960.4 1122.74 1972.85C1137.23 1985.29 1144.47 2003.4 1144.47 2027.18C1144.47 2042.29 1140.44 2055.46 1132.38 2066.69C1124.43 2077.91 1113.32 2086.3 1099.06 2091.85L1154.92 2194.86V2196.86H1121.27L1069.66 2098.69ZM1013.79 2072.52H1061.98C1077.55 2072.52 1089.91 2068.4 1099.06 2060.18C1108.31 2051.96 1112.94 2040.96 1112.94 2027.18C1112.94 2012.18 1108.53 2000.68 1099.71 1992.68C1091 1984.68 1078.37 1980.62 1061.82 1980.51H1013.79V2072.52ZM1257.17 2200.2C1233.22 2200.2 1213.72 2192.19 1198.7 2176.19C1183.67 2160.08 1176.15 2138.57 1176.15 2111.69V2106.02C1176.15 2088.13 1179.48 2072.19 1186.12 2058.19C1192.87 2044.07 1202.23 2033.07 1214.21 2025.19C1226.3 2017.18 1239.37 2013.18 1253.41 2013.18C1276.39 2013.18 1294.25 2020.9 1306.99 2036.35C1319.73 2051.79 1326.1 2073.9 1326.1 2102.68V2115.52H1206.37C1206.81 2133.3 1211.87 2147.69 1221.56 2158.69C1231.36 2169.58 1243.78 2175.03 1258.81 2175.03C1269.48 2175.03 1278.51 2172.8 1285.92 2168.36C1293.33 2163.91 1299.8 2158.03 1305.36 2150.69L1323.81 2165.36C1309 2188.58 1286.79 2200.2 1257.17 2200.2ZM1253.41 2038.52C1241.22 2038.52 1230.98 2043.07 1222.71 2052.18C1214.43 2061.19 1209.31 2073.85 1207.35 2090.19H1295.88V2087.85C1295.02 2072.19 1290.88 2060.07 1283.47 2051.51C1276.06 2042.85 1266.04 2038.52 1253.41 2038.52ZM1470.33 2196.86C1468.59 2193.3 1467.17 2186.97 1466.08 2177.86C1452.03 2192.74 1435.27 2200.2 1415.77 2200.2C1398.35 2200.2 1384.04 2195.19 1372.82 2185.19C1361.71 2175.08 1356.16 2162.3 1356.16 2146.86C1356.16 2128.08 1363.13 2113.52 1377.06 2103.19C1391.11 2092.74 1410.82 2087.52 1436.19 2087.52H1465.6V2073.35C1465.6 2062.57 1462.43 2054.01 1456.12 2047.69C1449.81 2041.24 1440.49 2038.02 1428.19 2038.02C1417.41 2038.02 1408.37 2040.79 1401.08 2046.35C1393.78 2051.9 1390.13 2058.63 1390.13 2066.52H1359.75C1359.75 2057.52 1362.86 2048.85 1369.06 2040.51C1375.37 2032.07 1383.87 2025.4 1394.54 2020.51C1405.32 2015.63 1417.13 2013.18 1429.98 2013.18C1450.35 2013.18 1466.3 2018.4 1477.84 2028.85C1489.38 2039.19 1495.37 2053.46 1495.81 2071.68V2154.69C1495.81 2171.25 1497.88 2184.41 1502.02 2194.19V2196.86H1470.33ZM1420.19 2173.36C1429.66 2173.36 1438.64 2170.86 1447.14 2165.86C1455.63 2160.86 1461.78 2154.36 1465.6 2146.36V2109.36H1441.91C1404.89 2109.36 1386.37 2120.41 1386.37 2142.52C1386.37 2152.19 1389.53 2159.75 1395.84 2165.19C1402.16 2170.63 1410.28 2173.36 1420.19 2173.36ZM1614.07 2175.03C1624.85 2175.03 1634.27 2171.69 1642.33 2165.02C1650.39 2158.35 1654.85 2150.02 1655.72 2140.02H1684.31C1683.76 2150.35 1680.28 2160.19 1673.85 2169.52C1667.43 2178.86 1658.82 2186.31 1648.04 2191.86C1637.37 2197.42 1626.05 2200.2 1614.07 2200.2C1590.01 2200.2 1570.84 2192.03 1556.57 2175.69C1542.42 2159.24 1535.34 2136.8 1535.34 2108.35V2103.19C1535.34 2085.63 1538.49 2070.02 1544.81 2056.35C1551.13 2042.68 1560.16 2032.07 1571.93 2024.52C1583.8 2016.96 1597.79 2013.18 1613.9 2013.18C1633.73 2013.18 1650.17 2019.24 1663.24 2031.35C1676.41 2043.46 1683.43 2059.18 1684.31 2078.52H1655.72C1654.85 2066.85 1650.49 2057.29 1642.65 2049.85C1634.93 2042.29 1625.34 2038.52 1613.9 2038.52C1598.55 2038.52 1586.63 2044.18 1578.13 2055.52C1569.75 2066.74 1565.55 2083.02 1565.55 2104.36V2110.18C1565.55 2130.96 1569.75 2146.97 1578.13 2158.19C1586.52 2169.41 1598.5 2175.03 1614.07 2175.03ZM1759.28 1972.85V2016.52H1792.27V2040.35H1759.28V2152.19C1759.28 2159.41 1760.75 2164.85 1763.69 2168.52C1766.63 2172.08 1771.64 2173.86 1778.72 2173.86C1782.2 2173.86 1786.99 2173.19 1793.09 2171.86V2196.86C1785.14 2199.08 1777.41 2200.2 1769.89 2200.2C1756.4 2200.2 1746.21 2196.02 1739.35 2187.69C1732.49 2179.36 1729.06 2167.52 1729.06 2152.19V2040.35H1696.88V2016.52H1729.06V1972.85H1759.28Z" fill="#61DAFB"/>
</svg>
